# AST/ASF file generated using VICON BodyLanguage
# -----------------------------------------------
:version 1.10
:name VICON
:units
  mass 1.0
  length 0.45
  angle deg
:documentation
   .ast/.asf automatically generated from VICON data using
   VICON BodyBuilder and BodyLanguage model FoxedUp or BRILLIANT.MOD
:root
   order TX TY TZ RX RY RZ
   axis XYZ
   position 0 0 0  
   orientation 0 0 0 
:bonedata
  begin
     id 1 
     name lhipjoint
     direction 0.677091 -0.635792 0.370561 
     length 2.74323 
     axis 0 0 0  XYZ
  end
  begin
     id 2 
     name lfemur
     direction 0.34202 -0.939693 0  
     length 7.44995  
     axis 0 0 20  XYZ
    dof rx ry rz
    limits (-160.0 20.0)
           (-70.0 70.0)
           (-60.0 70.0)
  end
  begin
     id 3 
     name ltibia
     direction 0.34202 -0.939693 0   
     length 7.34467   
     axis 0 0 20   XYZ
    dof rx
    limits (-10.0 170.0)
  end
  begin
     id 4 
     name lfoot
     direction 0.101953 -0.280114 0.954537   
     length 1.72105   
     axis -90 7.62852e-016 20   XYZ
    dof rx rz
    limits (-45.0 90.0)
           (-70.0 20.0)
  end
  begin
     id 5 
     name ltoes
     direction 1.53537e-011 -4.21915e-011 1   
     length 0.865872   
     axis -90 7.62852e-016 20   XYZ
    dof rx
    limits (-90.0 20.0)
  end
  begin
     id 6 
     name rhipjoint
     direction -0.695735 -0.620586 0.361699   
     length 2.81045  
     axis 0 0 0  XYZ 
  end
  begin
     id 7 
     name rfemur
     direction -0.34202 -0.939693 0   
     length 7.29387   
     axis 0 0 -20   XYZ
    dof rx ry rz
    limits (-160.0 20.0)
           (-70.0 70.0)
           (-70.0 60.0)
  end
  begin
     id 8 
     name rtibia
     direction -0.34202 -0.939693 0   
     length 7.44935   
     axis 0 0 -20   XYZ
    dof rx
    limits (-10.0 170.0)
 end
 begin
     id 9 
     name rfoot
     direction -0.104163 -0.286184 0.952496   
     length 1.77731  
     axis -90 -7.62852e-016 -20   XYZ
    dof rx rz
    limits (-45.0 90.0)
           (-20.0 70.0)
  end
  begin
     id 10 
     name rtoes
     direction -1.5355e-011 -4.21888e-011 1   
     length 0.892424   
     axis -90 -7.62852e-016 -20   XYZ
    dof rx
    limits (-90.0 20.0)
  end
  begin
     id 11 
     name lowerback
     direction 0.0100202 0.997226 -0.0737589   
     length 2.16892   
     axis 0 0 0   XYZ
    dof rx ry rz
    limits (-20.0 45.0)
           (-30.0 30.0)
           (-30.0 30.0)
  end
  begin
     id 12 
     name upperback
     direction 0.00432398 0.999988 -0.00215019   
     length 2.17326   
     axis 0 0 0   XYZ
    dof rx ry rz
    limits (-20.0 45.0)
           (-30.0 30.0)
           (-30.0 30.0)
  end
  begin
     id 13 
     name thorax
     direction -0.00195047 0.999485 0.0320434   
     length 2.18139   
     axis 0 0 0   XYZ
    dof rx ry rz
    limits (-20.0 45.0)
           (-30.0 30.0)
           (-30.0 30.0)
  end
  begin
     id 14 
     name lowerneck
     direction 0.00782762 0.986241 0.165128   
     length 1.88415   
     axis 0 0 0   XYZ
    dof rx ry rz
    limits (-20.0 45.0)
           (-30.0 30.0)
           (-30.0 30.0)
  end
  begin
     id 15 
     name upperneck
     direction 0.00988667 0.981098 -0.193258   
     length 1.9242   
     axis 0 0 0   XYZ
    dof rx ry rz
    limits (-20.0 45.0)
           (-30.0 30.0)
           (-30.0 30.0)
  end
  begin
     id 16
     name head
     direction 0.00252199 0.996513 -0.0833958  
     length 1.93887  
     axis 0 0 0   XYZ
    dof rx ry rz
    limits (-20.0 45.0)
           (-30.0 30.0)
           (-30.0 30.0)
  end
  begin
     id 17 
     name lclavicle
     direction 0.929492 0.368193 -0.0218667  
     length 3.5955  
     axis 0 0 0   XYZ
    dof ry rz
    limits (-20.0 10.0)
           (0.0 20.0)
  end
  begin
     id 18 
     name lhumerus
     direction 1 -4.48972e-011 1.41911e-027   
     length 5.2795   
     axis 180 -30 -90   XYZ
    dof rx ry rz
    limits (-60.0 90.0)
           (-90.0 90.0)
           (-90.0 90.0)
  end
  begin
     id 19
     name lradius
     direction 1 -4.48963e-011 7.05772e-027   
     length 3.53504   
     axis 180 -30 -90   XYZ
    dof rx
    limits (-10.0 170.0)
  end
  begin
     id 20
     name lwrist
     direction 1 -4.48957e-011 9.54866e-027   
     length 1.76752   
     axis -7.69462e-015 90 90   XYZ
    dof ry
    limits (-180.0 0.0)
 end
  begin
     id 21 
     name lhand
     direction 1 -4.48979e-011 1.90973e-026   
     length 0.667948   
     axis -1.21857e-014 90 90   XYZ
    dof rx rz
    limits (-90.0 90.0)
           (-45.0 45.0)
  end
  begin
     id 22 
     name lfingers
     direction 1 -4.48987e-011 3.81946e-026   
     length 0.538517   
     axis -2.43714e-014 90 90   XYZ
    dof rx
    limits (0.0 90.0)
  end
  begin
     id 23
     name lthumb
     direction 0.707107 -6.34962e-011 0.707107   
     length 0.773206   
     axis -90 45 2.85299e-015   XYZ
    dof rx rz
    limits (-45.0 45.0)
           (-45.0 45.0)
  end
  begin
     id 24 
     name rclavicle
     direction -0.898763 0.414256 -0.143584   
     length 3.5176  
     axis 0 0 0   XYZ 
    dof ry rz
    limits (-10.0 20.0)
           (-20.0 0.0)
  end
  begin
     id 25 
     name rhumerus
     direction -1 -4.48971e-011 1.129e-027  
     length 5.25035   
     axis 180 30 90   XYZ
    dof rx ry rz
    limits (-90.0 60.0)
           (-90.0 90.0)
           (-90.0 90.0)
  end
  begin
     id 26 
     name rradius
     direction -1 -4.48955e-011 6.34664e-027   
     length 3.58884   
     axis 180 30 90   XYZ
    dof rx
    limits (-10.0 170.0)
  end
  begin
     id 27 
     name rwrist
     direction -1 -4.48966e-011 9.54866e-027   
     length 1.79442   
     axis -7.69462e-015 -90 -90   XYZ
    dof ry
    limits (-180.0 0.0)
  end
  begin
     id 28
     name rhand
     direction -1 -4.48973e-011 1.90973e-026   
     length 0.779235   
     axis -1.21857e-014 -90 -90   XYZ
    dof rx rz
    limits (-90.0 90.0)
           (-45.0 45.0)
  end
  begin
     id 29
     name rfingers
     direction -1 -4.48984e-011 3.81946e-026   
     length 0.62824   
     axis -2.43714e-014 -90 -90   XYZ
    dof rx
    limits (0.0 90.0)
  end
  begin
     id 30
     name rthumb
     direction -0.707107 -6.34968e-011 0.707107   
     length 0.90203   
     axis -90 -45 -2.85299e-015   XYZ
    dof rx rz
    limits (-45.0 45.0)
           (-45.0 45.0)
  end
:hierarchy
  begin
    root lhipjoint rhipjoint lowerback
    lhipjoint lfemur
    lfemur ltibia
    ltibia lfoot
    lfoot ltoes
    rhipjoint rfemur
    rfemur rtibia
    rtibia rfoot
    rfoot rtoes
    lowerback upperback
    upperback thorax
    thorax lowerneck lclavicle rclavicle
    lowerneck upperneck
    upperneck head
    lclavicle lhumerus
    lhumerus lradius
    lradius lwrist
    lwrist lhand lthumb
    lhand lfingers
    rclavicle rhumerus
    rhumerus rradius
    rradius rwrist
    rwrist rhand rthumb
    rhand rfingers
  end

#!OML:ASF I:\Random Stuff\random\construction\7_22_03\Session 2\subj1.ASF
:FULLY-SPECIFIED
:DEGREES
99
root -2.54844 17.6762 0.332692 -12.9844 84.8375 -17.2764
lowerback -2.84034 -0.96267 0.0116237
upperback -4.42284 -1.16982 1.25451
thorax -2.92634 -0.525819 1.27807
lowerneck -22.704 -6.23994 -3.65457
upperneck 29.1469 -8.48799 3.2206
head 14.055 -3.48901 0.349311
rclavicle 1.35671e-014 -3.97569e-016
rhumerus 34.6284 12.4373 -66.9237
rradius 100.309
rwrist -29.2076
rhand -35.3007 15.6138
rfingers 7.12502
rthumb -8.43499 -14.1978
lclavicle 1.35671e-014 -3.97569e-016
lhumerus -34.5003 2.85515 87.177
lradius 26.3451
lwrist 28.1794
lhand -20.9255 57.4065
lfingers 7.12502
lthumb 5.44624 87.3166
rfemur -5.26129 29.6309 18.526
rtibia 9.76733
rfoot -3.27698 -34.9962
rtoes -14.135
lfemur -7.00588 -25.1066 -15.9199
ltibia 18.8554
lfoot -17.9287 29.8978
ltoes -22.9215
100
root -2.55097 17.6791 0.330012 -12.471 84.7917 -16.7631
lowerback -2.865 -0.935968 0.00101808
upperback -4.40995 -1.13548 1.22613
thorax -2.90019 -0.509158 1.25434
lowerneck -22.6842 -6.29985 -3.64202
upperneck 29.3806 -8.56509 3.15652
head 14.151 -3.52185 0.306485
rclavicle 4.22417e-015 1.5704e-014
rhumerus 34.6566 12.3213 -67.0615
rradius 100.286
rwrist -29.2803
rhand -35.3455 15.4754
rfingers 7.12502
rthumb -8.47818 -14.3344
lclavicle 4.22417e-015 1.5704e-014
lhumerus -34.4849 2.63367 87.3336
lradius 26.4796
lwrist 28.2803
lhand -20.9451 57.4983
lfingers 7.12502
lthumb 5.42737 87.4088
rfemur -5.29536 29.6832 18.4677
rtibia 9.76827
rfoot -3.24698 -35.0111
rtoes -14.1734
lfemur -7.00231 -25.029 -15.9616
ltibia 18.8506
lfoot -17.947 29.8589
ltoes -22.7861
101
root -2.55541 17.6803 0.327138 -12.295 84.7687 -16.5758
lowerback -2.83744 -0.892563 0.0034792
upperback -4.39989 -1.07891 1.19293
thorax -2.90709 -0.481818 1.21936
lowerneck -22.6233 -6.37712 -3.67964
upperneck 29.5665 -8.68938 3.21622
head 14.2304 -3.5639 0.313644
rclavicle 1.2101e-014 -7.05686e-015
rhumerus 34.6639 12.1429 -67.1409
rradius 100.285
rwrist -29.3449
rhand -35.5156 15.407
rfingers 7.12502
rthumb -8.64239 -14.3961
lclavicle 1.2101e-014 -7.05686e-015
lhumerus -34.4159 2.44058 87.4743
lradius 26.5325
lwrist 28.2464
lhand -20.9546 57.7787
lfingers 7.12502
lthumb 5.41819 87.6894
rfemur -5.3014 29.7075 18.4446
rtibia 9.7446
rfoot -3.11934 -35.0281
rtoes -14.4846
lfemur -7.00767 -24.9746 -15.9752
ltibia 18.8542
lfoot -17.947 29.8234
ltoes -22.8074
102
root -2.55978 17.6784 0.324016 -12.1208 84.7933 -16.381
lowerback -2.81659 -0.869838 -0.021454
upperback -4.37896 -1.0497 1.17779
thorax -2.89752 -0.46719 1.21795
lowerneck -22.5919 -6.4738 -3.78966
upperneck 29.7734 -8.83235 3.32709
head 14.3342 -3.61332 0.348507
rclavicle -4.96962e-015 1.20265e-014
rhumerus 34.6707 11.986 -67.1511
rradius 100.36
rwrist -29.4644
rhand -35.5861 15.3096
rfingers 7.12502
rthumb -8.71044 -14.4907
lclavicle -4.96962e-015 1.20265e-014
lhumerus -34.3199 2.37045 87.6089
lradius 26.553
lwrist 28.1068
lhand -20.809 57.6544
lfingers 7.12502
lthumb 5.55873 87.5615
rfemur -5.23034 29.6853 18.4121
rtibia 9.6102
rfoot -2.91638 -35.0078
rtoes -14.8407
lfemur -7.05971 -24.9611 -16.0068
ltibia 18.9003
lfoot -17.7626 29.8609
ltoes -23.4229
103
root -2.56198 17.6778 0.321653 -12.8335 84.8066 -17.0765
lowerback -2.82696 -0.866305 0.0265699
upperback -4.35666 -1.04575 1.19188
thorax -2.86929 -0.466766 1.20514
lowerneck -22.5456 -6.55704 -3.85502
upperneck 29.9462 -8.95744 3.39301
head 14.4143 -3.6581 0.362154
rclavicle -2.23509e-014 6.55989e-015
rhumerus 34.6356 11.8807 -67.1854
rradius 100.472
rwrist -29.6201
rhand -35.5175 15.3587
rfingers 7.12502
rthumb -8.64418 -14.4443
lclavicle -2.23509e-014 6.55989e-015
lhumerus -34.2548 2.36981 87.7007
lradius 26.6151
lwrist 27.9588
lhand -20.5195 57.4557
lfingers 7.12502
lthumb 5.83823 87.3552
rfemur -5.11939 29.6578 18.4744
rtibia 9.42198
rfoot -2.76006 -34.9726
rtoes -14.8548
lfemur -7.11806 -24.9532 -15.9519
ltibia 18.9813
lfoot -17.6154 29.91
ltoes -23.9046
104
root -2.56366 17.6775 0.320102 -14.5347 84.7822 -18.7461
lowerback -2.80196 -0.87528 0.1669
upperback -4.34679 -1.05832 1.21413
thorax -2.87503 -0.47694 1.14968
lowerneck -22.4534 -6.59415 -3.84488
upperneck 30.0424 -9.04335 3.46083
head 14.4449 -3.68049 0.373777
rclavicle 8.62228e-015 4.27387e-015
rhumerus 34.5594 11.8385 -67.2971
rradius 100.585
rwrist -29.7699
rhand -35.4483 15.4559
rfingers 7.12502
rthumb -8.57743 -14.3499
lclavicle 8.62228e-015 4.27387e-015
lhumerus -34.184 2.42055 87.7127
lradius 26.6525
lwrist 27.9132
lhand -20.3965 57.6166
lfingers 7.12502
lthumb 5.95707 87.5129
rfemur -4.98188 29.6463 18.6569
rtibia 9.23107
rfoot -2.7338 -34.9547
rtoes -14.5161
lfemur -7.13356 -24.935 -15.8003
ltibia 19.0715
lfoot -17.5977 29.9137
ltoes -24.0704
105
root -2.56639 17.6771 0.319116 -15.2288 84.7709 -19.4279
lowerback -2.79074 -0.883639 0.213024
upperback -4.33658 -1.07007 1.21773
thorax -2.87135 -0.484301 1.12758
lowerneck -22.3973 -6.62844 -3.88667
upperneck 30.1212 -9.11802 3.56876
head 14.4811 -3.69836 0.411179
rclavicle 1.85118e-015 2.98177e-015
rhumerus 34.5321 11.8134 -67.3765
rradius 100.76
rwrist -29.9536
rhand -35.3968 15.4713
rfingers 7.12502
rthumb -8.52776 -14.3365
lclavicle 1.85118e-015 2.98177e-015
lhumerus -34.0897 2.45442 87.7424
lradius 26.6581
lwrist 28.0223
lhand -20.4971 57.8376
lfingers 7.12502
lthumb 5.85993 87.7366
rfemur -4.86768 29.6404 18.7243
rtibia 9.02001
rfoot -2.73542 -34.9468
rtoes -14.162
lfemur -7.17675 -24.9118 -15.7338
ltibia 19.1626
lfoot -17.6027 29.8966
ltoes -24.2867
106
root -2.56882 17.6777 0.318425 -15.0914 84.7772 -19.3038
lowerback -2.81391 -0.877392 0.187196
upperback -4.33214 -1.06186 1.21524
thorax -2.85344 -0.479534 1.13908
lowerneck -22.3577 -6.68676 -3.97897
upperneck 30.1733 -9.20292 3.6627
head 14.5117 -3.72955 0.448669
rclavicle -9.3553e-015 -8.84592e-015
rhumerus 34.5223 11.7579 -67.405
rradius 100.993
rwrist -30.0881
rhand -35.2508 15.2707
rfingers 7.12502
rthumb -8.38682 -14.5428
lclavicle -9.3553e-015 -8.84592e-015
lhumerus -34.0769 2.42452 87.8472
lradius 26.7267
lwrist 28.1265
lhand -20.5333 57.87
lfingers 7.12502
lthumb 5.82495 87.77
rfemur -4.80784 29.6354 18.6941
rtibia 8.84269
rfoot -2.60087 -34.9242
rtoes -14.2075
lfemur -7.24973 -24.8856 -15.7351
ltibia 19.2364
lfoot -17.5437 29.913
ltoes -24.6056
107
root -2.57035 17.6775 0.317196 -15.036 84.7878 -19.2534
lowerback -2.82358 -0.86685 0.1785
upperback -4.33914 -1.04762 1.20838
thorax -2.85548 -0.472135 1.13687
lowerneck -22.2819 -6.75243 -4.06776
upperneck 30.2006 -9.29759 3.74988
head 14.5235 -3.76699 0.48218
rclavicle -1.70334e-014 3.97569e-016
rhumerus 34.347 11.7015 -67.5288
rradius 101.226
rwrist -30.0377
rhand -35.0748 15.1058
rfingers 7.12502
rthumb -8.21699 -14.7144
lclavicle -1.70334e-014 3.97569e-016
lhumerus -34.1753 2.37244 87.9719
lradius 26.8944
lwrist 28.2106
lhand -20.463 57.7356
lfingers 7.12502
lthumb 5.89285 87.6337
rfemur -4.77049 29.6248 18.6756
rtibia 8.73656
rfoot -2.3741 -34.8768
rtoes -14.5977
lfemur -7.29478 -24.8685 -15.7359
ltibia 19.2777
lfoot -17.4847 29.918
ltoes -24.7094
108
root -2.57114 17.6765 0.315904 -15.1229 84.8165 -19.3399
lowerback -2.82359 -0.863469 0.171445
upperback -4.34285 -1.04303 1.20253
thorax -2.85937 -0.469664 1.13485
lowerneck -22.2131 -6.82624 -4.2017
upperneck 30.267 -9.4004 3.87233
head 14.5601 -3.80626 0.535449
rclavicle 3.2874e-014 -3.47873e-015
rhumerus 34.0613 11.67 -67.7134
rradius 101.418
rwrist -29.8985
rhand -34.9204 15.3241
rfingers 7.12502
rthumb -8.06791 -14.5019
lclavicle 3.2874e-014 -3.47873e-015
lhumerus -34.2791 2.28126 88.1082
lradius 27.0917
lwrist 28.4777
lhand -20.5755 57.5805
lfingers 7.12502
lthumb 5.7842 87.4815
rfemur -4.73926 29.594 18.6741
rtibia 8.68093
rfoot -2.27038 -34.8663
rtoes -14.8513
lfemur -7.31748 -24.8768 -15.7346
ltibia 19.3007
lfoot -17.4997 29.892
ltoes -24.6477
109
root -2.57122 17.6768 0.315866 -15.6326 84.8449 -19.8514
lowerback -2.82909 -0.886058 0.175768
upperback -4.34556 -1.07291 1.20871
thorax -2.85852 -0.484549 1.13863
lowerneck -22.1552 -6.84583 -4.26438
upperneck 30.3355 -9.43583 3.95219
head 14.5896 -3.81472 0.572929
rclavicle -2.03754e-015 1.10325e-014
rhumerus 33.8555 11.7045 -67.8631
rradius 101.57
rwrist -29.8491
rhand -34.8866 15.5149
rfingers 7.12502
rthumb -8.0353 -14.3124
lclavicle -2.03754e-015 1.10325e-014
lhumerus -34.3128 2.38506 88.0696
lradius 27.0771
lwrist 28.1818
lhand -20.097 57.3029
lfingers 7.12502
lthumb 6.24613 87.1909
rfemur -4.72448 29.5544 18.7242
rtibia 8.6761
rfoot -2.2867 -34.9037
rtoes -14.9414
lfemur -7.32961 -24.8942 -15.6873
ltibia 19.3139
lfoot -17.6028 29.8187
ltoes -24.363
